<?xml version="1.0" standalone="no"?>
<!DOCTYPE svg PUBLIC "-//W3C//DTD SVG 20010904//EN"
 "http://www.w3.org/TR/2001/REC-SVG-20010904/DTD/svg10.dtd">
<svg version="1.0" xmlns="http://www.w3.org/2000/svg"
 width="462.000000pt" height="462.000000pt" viewBox="0 0 462.000000 462.000000"
 preserveAspectRatio="xMidYMid meet">
<metadata>
Created by potrace 1.11, written by Peter Selinger 2001-2013
</metadata>
<g transform="translate(0.000000,462.000000) scale(0.100000,-0.100000)"
fill="#000000" stroke="none">
<path d="M2678 4255 c-2 -1 -57 -5 -123 -9 -66 -3 -131 -8 -145 -10 -14 -3
-56 -9 -95 -15 -83 -13 -87 -14 -190 -41 -259 -69 -448 -171 -584 -316 l-72
-77 -127 -2 c-236 -4 -408 -76 -560 -236 -59 -62 -72 -80 -154 -209 -331 -517
-436 -899 -373 -1360 14 -102 76 -292 137 -420 133 -276 306 -464 533 -578 51
-25 194 -76 245 -87 8 -2 51 -10 95 -19 72 -15 83 -20 110 -54 34 -42 146
-155 189 -190 120 -99 335 -207 474 -237 12 -3 32 -7 45 -10 139 -31 407 -36
507 -10 8 2 31 7 50 10 89 15 249 64 360 109 86 36 281 134 301 152 8 8 19 14
23 14 12 0 199 125 288 193 49 37 141 101 205 143 205 133 298 214 397 347
113 151 196 363 222 572 3 22 7 51 10 65 8 51 17 249 18 375 0 333 -55 563
-125 520 -6 -4 -19 -27 -30 -52 -68 -160 -167 -210 -293 -149 -52 25 -94 65
-143 131 -18 24 -25 28 -39 19 -19 -11 -19 -10 -64 -106 -53 -112 -132 -178
-212 -178 -130 0 -228 101 -231 239 -1 32 -4 62 -7 65 -3 3 -26 6 -50 7 -56 2
-145 25 -179 47 -124 81 -128 234 -11 448 l39 71 -20 29 c-34 50 -49 95 -54
162 -9 106 29 167 143 233 71 42 69 59 -14 143 -136 138 -294 236 -422 260
-39 7 -72 12 -74 11z"/>
<path d="M428 845 c-2 -2 -22 -5 -45 -8 -136 -19 -233 -84 -233 -156 0 -74 79
-159 214 -232 136 -73 208 -94 316 -94 152 1 231 114 169 243 -24 48 -140 169
-208 217 -39 26 -52 29 -127 31 -46 1 -84 0 -86 -1z"/>
<path d="M1078 693 c-66 -26 -69 -102 -7 -160 87 -79 221 -37 203 64 -9 51
-64 93 -140 107 -10 2 -36 -3 -56 -11z"/>
</g>
</svg>
